<svg xmlns="http://www.w3.org/2000/svg" viewBox="0 0 309.77 46.82"><title>Asset 18</title><g id="Layer_2" data-name="Layer 2"><g id="Layer_1-2" data-name="Layer 1"><path d="M0,46.82V0H37.74Q43,0,45.33,2.15t2.33,6.93v5.45q0,3.76-1.88,5.62a9.91,9.91,0,0,1-5.92,2.35,9.19,9.19,0,0,1,6,2.81,9.22,9.22,0,0,1,2.06,6.36v6q0,4.65-3.21,6.91T35,46.82ZM39.64,15.06v-4.7a4.1,4.1,0,0,0-1-3.18c-.66-.6-1.92-.89-3.78-.89h-27V19.22h27c1.8,0,3-.31,3.74-.93A4.2,4.2,0,0,0,39.64,15.06Zm.4,19.8V31c0-2.13-.38-3.59-1.13-4.41s-2.1-1.22-4-1.22h-27V40.39h27c2,0,3.33-.39,4.07-1.19S40,37,40,34.86Z"/><path d="M60,46.82,82.21,8.37h6.64l22.76,38.45h-7.88l-5-9H72.15l-4.92,9ZM75.21,32.29H95.63L85.39,14Z"/><path d="M120.74,46.82V43.36l29.05-29.28H123.4V8.37h37.91v3.06L132,41h29.32v5.81Z"/><path d="M172.83,46.82,195.06,8.37h6.64l22.77,38.45h-7.88l-5-9H185l-4.92,9Zm15.23-14.53h20.42L198.25,14Z"/><path d="M238,46.82V0h7.84V46.82Z"/><path d="M288.29,6.38V46.82h-7.8V6.38H259.1V0h50.67V6.38Z"/></g></g></svg>